<?xml version="1.0" encoding="utf-8"?>
<!-- Generator: Adobe Illustrator 16.0.0, SVG Export Plug-In . SVG Version: 6.00 Build 0)  -->
<!DOCTYPE svg PUBLIC "-//W3C//DTD SVG 1.1//EN" "http://www.w3.org/Graphics/SVG/1.1/DTD/svg11.dtd">
<svg version="1.1" id="Composite_Path_1_" xmlns="http://www.w3.org/2000/svg" xmlns:xlink="http://www.w3.org/1999/xlink" x="0px"
	 y="0px" width="35px" height="56px" viewBox="0 0 35 56" enable-background="new 0 0 35 56" xml:space="preserve">
<g id="Composite_Path">
	<g>
		<path fill="#FF4D4D" d="M17.411,0.569c-9.509,0-17.217,7.71-17.217,17.218c0,1.408,0.188,2.768,0.506,4.078l0.018,0.072
			c0.44,1.77,10.762,23.221,14.951,31.889c0.961,1.99,2.521,1.988,3.479-0.001c4.115-8.535,14.133-29.341,14.444-30.207l0.052-0.144
			c0.625-1.783,0.981-3.691,0.981-5.688C34.626,8.28,26.919,0.569,17.411,0.569z M17.412,27.498c-5.364,0-9.711-4.348-9.711-9.71
			c0.001-5.36,4.347-9.711,9.711-9.711c5.361,0,9.708,4.351,9.708,9.711C27.12,23.152,22.773,27.498,17.412,27.498z"/>
	</g>
</g>
</svg>
